<svg id="Calque_1" data-name="Calque 1" xmlns="http://www.w3.org/2000/svg" viewBox="0 0 3249.67 3875.53"><defs><style>.cls-1{fill:#fff;}</style></defs><title>YoRHa logo ngfehzijuosjgsejgzosvg</title><path class="cls-1" d="M1136,3519.29q208.35-236.17,416.91-472.17c14.78-16.63,18.62-30.63,8.84-51.11-12.16-25.47-22.18-52.12-30.88-79a83.33,83.33,0,0,1-2.61-38.43c16.39-94.72,10.69-186.25-39.26-270.87-14.29-24.2-32.86-46-50.4-68.13-36.75-46.41-74.21-92.38-95.84-148.38-8.06-20.88-14.46-42.5-20.21-64.16-12.34-46.56-.17-88.8,24.31-128.68,8.76-14.28,20.66-19.79,37.45-19.5,32.5.57,60,12.18,83.84,33.55,11.89,10.66,17.74,22.57,14.06,39.78-8.39,39.27-.46,76.36,21,110,8.41,13.17,9.82,24,3.49,39.11-24.1,57.41-16.84,110.71,25.69,157.71,39.29,43.42,89.77,50.93,144.16,43.35,22.1-3.08,39.75-16.22,55.83-31.31,18.41-17.28,19.94-16.92,40.93-6.15,15.5,7.95,31.73,14.49,47.62,21.71,5.81,2.63,11.55,5.38,17.39,8.11a.08.08,0,0,1,0,.09c-4.1,20.36-9,38.81-11.35,57.57-4.24,33.07,3,45.56,34,58.08,14.52,5.88,30.1,9.41,45.45,12.92,27.33,6.24,36.94,14.87,40.4,43.15,6.57,53.76,25.38,103.47,50.21,150.81,9.48,18.08,23,35,38,48.95,12.53,11.7,15.85,23.62,15.79,39.41q-.81,198.74-.8,397.48-.29,221.25-.44,442.5c0,4.68.81,11.23,1.36,22.05a.08.08,0,0,0,.15,0c.9-2,5.36-15.73,5.82-16.73l.06-.12c37.87-182.57,76.56-365.59,114.36-548.18,12-57.88,23.79-115.8,36.5-173.53,3.79-17.22.42-29.48-13.05-41.86-38-34.95-74.69-71.38-111.76-107.35-3.48-3.37-6.05-7.67-9.3-11.88a.06.06,0,0,1,0-.07c1.27-3.6,1.66-7.16,3.53-9.55,44.27-56.61,67.33-121.75,77.89-192,4.32-28.73,13.52-36.79,43.06-43.54,17.71-4.05,35-10.19,52.07-16.64,18.62-7.05,27-22,25.5-41.44-1.12-14.86-3.95-29.63-6.53-44.35-1.4-8-3.87-15.79-6.31-25.49a.1.1,0,0,1,0-.1c26.47-12.2,51.81-24.15,77.4-35.57,10.72-4.79,18.52.26,26.28,8.25,46.16,47.5,101.53,46.42,157.22,24.09,60-24.07,109-99.84,73.28-186.08-7.89-19.09-5.88-32.25,4.31-48.3,19.5-30.74,26.47-65,19-100.64-4.64-22.27,3.36-36.58,19.79-49.55,24.58-19.41,52-28.86,83.36-28.16,13,.3,22.39,5.22,29.17,15.8,24.61,38.4,38.27,79.1,28.71,125.56-9.85,47.9-26.56,93.17-54.66,133.06-28.27,40.11-60.1,77.69-89,117.35-61.45,84.21-87.07,177.13-63,280.48a170.06,170.06,0,0,0,21,50.31q198.58,319.28,398.3,637.84c1.68,2.69,5.68,7.89,10.55,14.31a.09.09,0,0,0,.15-.07L3000,3535h0q-102.93-307.83-204.46-616.24c-6.79-20.48-17.07-31.63-38.55-36.67-38.85-9.13-76.85-21.77-115.43-32.12-18.89-5.08-25.91-16.91-28.78-35.61-9.8-63.94,2-123.39,38-176.51,31.27-46.11,65-90.66,99.46-134.47,55.4-70.42,83.08-149.61,77.82-239-3.06-51.81-18.19-99-65.08-128.34h0c-5-4-6-5-11.59-9.3a.08.08,0,0,1,0-.12c32.54-36.37,68.8-64.48,118.47-66.8,23.81-1.11,48.09,3,71.84,6.68,19.9,3.13,32.06,16.35,36.81,36.22,9.24,38.68,10.75,76.39-2.13,115.46-13.76,41.73-23,85-33,127.9-17.83,76.53,12.27,135,71.11,181.63a218.89,218.89,0,0,0,33.64,21.45q243.85,129.24,488,258h0c.43.08,9.71,4,11.55,4.74a.08.08,0,0,0,.09-.13c-6.06-7-18.59-22.65-25.29-28.62Q3406.8,2680,3290.73,2577.31c-47.36-42-95.18-83.57-141.73-126.47-15.3-14.1-30-18.63-49.66-12-20.46,7-41.48,12.27-62.29,18.21-19.63,5.6-22.25,4.36-31.52-13.23-20.63-39.15-18.82-80.27-10.88-121.93.62-3.27,1.55-6.48,2.43-9.69,14.28-51.6,41.23-99.82,40.28-156a.08.08,0,0,1,.15-.05q34.62,45.75,24.26,99.92c-3.71,19.56-10,38.64-15.6,57.81-9.12,31.35-14.64,63.05-11.47,98.55a.08.08,0,0,0,.07.08c32.87,6.94,61.28-6.48,92.54-18.62a.08.08,0,0,1,.08,0l548,495.61-.49.85-704.51-223.28a.11.11,0,0,1-.06-.07c-2.16-14.67-4.57-27.7-5.88-40.83-1.26-12.7-8.48-17.65-20.11-16.79a353.3,353.3,0,0,0-37.16,4.41c-94,17.08-163.59,67-205.55,153.72-14.8,30.57-12.13,43.05,19.19,58.15,25.11,12.1,52.73,19,83.1,29.54a.08.08,0,0,1,.05.05c87.19,270.07,175.82,544.64,264.44,819.16a.07.07,0,0,1-.13.07l-565.34-643.08a.1.1,0,0,1,0-.07c6.84-30.93,14.53-58.81,18.86-87.2,4.63-30.31-1.79-39-31.2-46.94-105.34-28.3-204.77-21.82-292.24,51.63-5.11,4.29-10.43,8.36-15.16,13-28.86,28.57-36.32,32.34-4.87,75.47,7.76,10.64,18.14,19.5,27.92,28.52s20.24,17.11,31.69,26.68a.08.08,0,0,1,0,.08q-93.42,451.64-186.68,902.46a.08.08,0,0,1-.16,0q-92.83-448.65-186.77-902.63a.07.07,0,0,1,0-.08c8.33-6.83,18.13-13.18,25.78-21.52,16.76-18.25,32.94-37.1,48.33-56.52,9.68-12.21,7.28-24.84-3.4-36-46.77-48.84-101.64-83.92-169.48-93.57-50.82-7.23-101.5-1.76-151.12,11.32-31.91,8.4-38.72,17.26-33.88,50.08,4,26.89,11.67,53.22,18.92,85a.19.19,0,0,1,0,.07c-185.81,211.38-375.57,427.27-565.27,643.09a.08.08,0,0,1-.14-.08q132.71-411.3,265-821.43a.1.1,0,0,1,.06,0c22.2-6.11,43-11.68,63.65-17.61,4.75-1.37,9.27-3.75,13.7-6,36.19-18.67,40.16-30.9,21.54-67.34-48.3-94.5-128.44-140.89-231.37-152.16-22.42-2.45-25.8.8-29.7,22.77-1.88,10.57-2.77,21.32-4.4,34.27a.07.07,0,0,1-.06.07q-352.48,112-706.7,223.88a.08.08,0,0,1-.07-.14l547.42-494.93a.11.11,0,0,1,.08,0c23.54,6.54,44.76,13.5,66.46,18.2,25.56,5.53,31.1,1.2,28.72-24.06-2.33-24.73-7.06-49.31-12.11-73.68-3.7-17.88-10.33-35.13-14.41-53-8.79-38.35-.92-73.88,20.35-109.33a.08.08,0,0,1,.15,0c.6,5.28.52,9.42.6,12.15,1,42,18.46,77.81,32.67,116.16,19.56,52.77,22.9,107.27,14.62,162.41-4.64,31-20.28,53.94-48.94,70.86C897.16,2612.36,734.58,2712,571,2810c-1.28.77,0,0-7,5-.07.05-3.08,2-3,2,10.48-2,15-4,26.88-6.57q242.46-77.94,484.8-156.2c25.94-8.38,27-10.37,25.13-37.48-.71-10-3.53-20.2-2.11-29.82,1.87-12.65,3.36-28.16,11.24-36.67,59.28-64,66.91-139.12,49.36-219.53A1119.58,1119.58,0,0,0,1125,2215.21c-12.76-38.18-10.27-75.19-1-113,4.68-19,16.24-30.55,34.66-35.48,72.44-19.4,135.11-3.87,186.09,52.65a45,45,0,0,1,6.17,8.59.09.09,0,0,1,0,.11c-6,4.95-5.7,5-9,6.95-45,27.14-63.14,73.61-67.13,122.31-7.39,90.12,18.6,171,74.56,242.38,30.32,38.65,60.7,77.34,89.1,117.39,26.66,37.61,48.82,78.37,51.93,125.47,4,61.2-1.5,120.21-33.22,176.11-110.53,194.8-219,390.79-328.12,586.36-4.61,8.26-8.58,16.87-12.85,25.32,0,0-9.3,16.64-9.27,16.66" transform="translate(-425.71 -119.68)"/><path class="cls-1" d="M2173.63,1649.34h29.68c18.5-133.78,26.68-270.12,69.72-405.58,31.61,110.2,48.68,218,59.71,327.39-13.72,8-25.95,14.81-37.89,22.12-31.53,19.32-51.23,47.28-58.29,83.48-9.39,48.19-6,95.7,9,146.13,10.85-3.61,19.79-6.51,28.68-9.57,15.63-5.39,30.86-12.61,46.91-15.89,21.57-4.41,29.46,3.56,26.72,25.77-4.06,32.89-21.42,59.29-44.82,81.57-30.18,28.71-31.23,28.2-62.85-.21-20.11-18.08-36.35-38.62-45.53-64.52-1.79-5-1.64-12-11.56-12.37-10.18-.34-11.52,7.31-11.66,15.17-.56,31.65-2.05,63.34-1,95,.66,19.66-6.24,30-24.69,37.33-37.92,15.1-64.2,43.62-82.67,79.66-2.86,5.57-6.47,10.75-10.72,17.76-10.34-16.36-18.66-30.66-28.07-44.2-17.68-25.41-41.22-43-71.14-52.13-20.31-6.2-23.65-10.75-23.67-32.14,0-32.48.85-65,1.14-97.46.07-8.14,1.44-17.79-10.36-19.33-11.21-1.47-12.48,6.75-15.32,15.27-11.59,34.77-37.48,58.45-65.88,79.32-4.42,3.25-15.27,3.14-19.86-.09-29.66-20.9-52-48-63.48-83.19-.36-1.12-.68-2.27-.94-3.42-7.62-33.92,1.86-44,35.4-36,12.78,3.07,24.76,9.44,37.14,14.2,8.18,3.14,16.43,6.09,28.4,10.52,3.68-16.5,8.59-29.81,9.26-43.34,1.54-31.44,3.84-63.26.7-94.41-4.68-46.4-31.21-79.69-72.63-101-7.4-3.81-14.76-7.65-24.51-12.71,9.73-109,28.23-216.87,59-329.06,43.35,135.18,51.76,270.82,69.74,405.74h36c0-9.69-.1-18.59,0-27.48,1.91-145.78,1.86-291.62,6.25-437.32,6.47-214.95,39.72-425.86,105.19-631.19,1.23-3.87,2.92-7.6,6-15.58,3.83,9.9,6.66,16.06,8.62,22.49C2097,683,2120.14,809,2139.33,935.89c34,224.93,37.35,451.31,34.32,678.06C2173.49,1625.4,2173.63,1636.86,2173.63,1649.34Zm-43.06,296c13.28-10.43,18.36-21,18.22-37.57-1.21-139.9-1.32-279.82-2.39-419.72-.58-74.11-.56-148.29-4.09-222.29-7.17-150.65-24.57-300.32-48.89-449.17-10.5-64.25-21.69-128.39-43.67-190.07,0,33-.05,65.94,0,98.92.77,420.56,1.35,860,2.24,1280.59" transform="translate(-425.71 -119.68)"/><path class="cls-1" d="M1575.67,119.68c9.15,28.29,17,50.61,23.61,73.3,35.85,123.45,57.93,249.75,73.71,377,13.92,112.34,26.82,225,34.1,337.9,9.05,140.43,11.86,281.27,17.37,421.93,2.35,59.92,4.8,119.84,7,179.77.85,23,1.16,31.71-27.26,37.71-49,10.35-88.21,37.85-114.89,81.45-2.46,4-6.09,7.33-10.89,13-5.42-7.21-9.85-12.77-13.93-18.56-27.32-38.82-62.32-66.56-109.59-77.21-25.92-5.84-29.36-10.56-28.53-37.74,3.36-110.73,6.25-221.48,10.51-332.18,5-129.84,8.78-259.79,17.46-389.4a3071.61,3071.61,0,0,1,114.47-650.49C1569.88,132.52,1571.72,129.11,1575.67,119.68Zm4.53,1464c9-5.93,13.18-8.32,16.94-11.3,28.69-22.77,56.79-46.33,86.17-68.19,12.81-9.54,17.37-19.55,16.57-35.55-4.67-93.14-8.36-186.34-12.09-279.52s-6.28-186.42-10.9-279.56c-7.06-142.29-22.83-283.79-44.1-424.59C1622,413.47,1607,342.59,1593.47,271.53c-2.91-15.26-10-29.72-13.27-44.9Z" transform="translate(-425.71 -119.68)"/><path class="cls-1" d="M2522,1647c-13.75-16.82-25.22-32-37.91-46.12-23-25.59-52.16-40.69-85.49-48.61-26.48-6.29-29.89-10.68-29.06-37.57,3.87-124.9,7.68-249.81,12.16-374.69,3.46-96.57,6.88-193.16,12.06-289.65,12.9-240.38,51.49-476.56,118.37-708,1.09-3.78,2.55-7.46,5.92-17.24,4.91,13.37,8.15,21.46,10.87,29.71,32.72,99.13,52.84,201.16,70.09,303.87,37.6,223.89,55.15,449.52,60.93,676.32,3.18,124.92,9.47,249.75,14.34,374.62.23,5.82,0,11.67.4,17.49.84,13.84-4.59,21-19.17,23.72-37.74,7.12-70.91,24.3-97.74,51.92C2545.23,1615.74,2535,1630.87,2522,1647Zm5.51-58.28c38.6-30.8,75.16-59.39,110.77-89.12,4.38-3.66,5.23-13.48,5-20.36-.79-27.46-3-54.87-4-82.32-5.57-143.94-10.6-287.9-16.5-431.82-6.37-155.69-22.09-310.58-45.43-464.55-12-78.87-29-157-44-235.38-1.62-8.46-4.95-16.59-7.49-24.88C2517.07,282.18,2520.14,1567.36,2527.53,1588.74Z" transform="translate(-425.71 -119.68)"/><path class="cls-1" d="M2376.37,2334.28c-46.4,21.5-91.59,42.68-137,63.38-25.13,11.45-30.21,9.18-41.18-16.69a156.38,156.38,0,0,1-7.31-21.22c-2.29-8.76-3.73-17.73-6.1-29.38,11.83-4.7,23.23-9.37,34.44-13.49,53.91-15.23,101.09-42.62,143.41-78.67,72.12-61.43,131.16-132.53,162.44-223.64a277.67,277.67,0,0,0,10-35.94c2.1-10.53-.13-20.17-12.61-23.54-12.33-3.34-23.42-2.47-29.92,10.43a139.16,139.16,0,0,0-8.61,20.71C2443.05,2116.84,2347,2202,2232.7,2260c-13.7,6-29.25,10.7-47.65,17.24-2.36-27.79,2.06-51.23,9-73.82,1.89-6.2,12.29-10,19.09-14.46,32.67-21.37,67.62-39.91,97.75-64.39,65.74-53.42,102.86-123.49,108-208.86,1-16.52,6.49-26.42,23-30.43,12.67-3.07,24.91-7.91,37.18-11.91-24.91-95.16-99.61-137.73-207.1-118.58-12.69-22.86-7.34-46.52-.13-69.13,17.33-54.37,74.57-90.91,127.63-83,57.92,8.59,97.66,55.38,99.17,116.8.14,5.83-.17,11.68.17,17.49,1.1,18.52,8.4,26.93,22.74,26.62,15.21-.33,22.43-8.4,23.64-26.06.91-13.26,1-26.71,3.3-39.73,11.3-63,71.19-104.86,132.61-92.14,62.77,13,111.91,81.68,93.69,144.82-49.28-5.77-99.08-7.54-140.27,29-30.65,27.22-51.74,60.37-64.1,102,14.22,10.93,28.12,22.53,43,32.78,15.86,11,20.74,25,16.14,43.26-19.71,78.06-46.6,153.23-96.21,217.75-29.26,38-61.75,73.63-90.74,107.92,16.3,17.91,33.45,37,50.89,55.87,24.53,26.51,45.21,55.55,58.41,89.4,14.63,37.52,1.66,86.87-28.92,111.48-31.51,25.36-77.58,27.19-112.13,4.45-19.8-13-20.69-16.59-11.16-38.6a256.43,256.43,0,0,0,10.6-28C2428.46,2416.89,2421,2384.64,2376.37,2334.28Z" transform="translate(-425.71 -119.68)"/><path class="cls-1" d="M1917,2332.51c-6.17,19-11,38.21-18.66,56.27-7.35,17.45-13.47,19.19-31.36,11.14-44-19.81-87.7-40.29-131.53-60.49-3.69-1.7-7.4-3.36-11.11-5-62.18,59.39-46.74,124.4-15.86,189.65a88.33,88.33,0,0,1-93.22,34c-39.62-9.9-62.94-36.08-70.33-75.76-4-21.52-2.13-42.57,7.37-63.36,19.85-43.4,50.68-77.9,84.71-110.14,8.34-7.9,16.84-15.63,24.09-22.36-30.77-35.93-61.6-69.59-89.77-105.35-52-66-80.06-143.29-100.64-223.71-4.64-18.16.18-32.33,16.23-43.14,14.41-9.72,27.93-20.76,43.55-32.51-14-43.93-36.44-81.71-73.88-109.42-39.18-29-83.84-28.19-130.42-20.78-9.67-21.65-4.87-42,1-61.48,17.23-56.84,73.54-92.92,131-85.16,54.37,7.35,94.82,56.23,96.48,116.61.16,5.83-.38,11.7.09,17.49,1.26,15.55,9.12,23.78,22.9,24.53,14,.77,21.92-6.53,23.68-23,1.06-9.91.45-20,1.28-29.93,5.15-61.63,50.4-106.69,109.56-109.35,53.42-2.41,110.2,42.79,120,97.7,3.1,17.42.91,35-.09,56-56-12-104.76-12-149.3,23.18-26.19,20.69-51.5,58.15-61.27,94.33,7.19,2.67,14.59,5.59,22.1,8.19,39.88,13.78,34.08,5.73,38.48,46.8,7.68,71.67,38.57,131.9,89.73,182,32.4,31.73,69.31,57.66,110.56,76.11,20.41,9.14,29.38,22.46,30.51,43.44.78,14.65,2.17,29.26,3.65,48.6-18.91-6.66-33.46-10.65-48-17.27-50.21-26.41-97.77-56.9-139.9-95.39-53-48.44-87.34-108.49-110.89-175.47-3-8.61-6-17.43-10.63-25.24-7.09-12.07-18.51-12.89-30.66-8.64-11.93,4.17-13.45,13.76-11.58,24.4a120.19,120.19,0,0,0,5.48,21.76c58.26,152.85,158.83,263.54,316.57,317.13,6.3,2.14,12.94,5.67,19.14,8.07C1908.27,2327.88,1909.91,2328.12,1917,2332.51Z" transform="translate(-425.71 -119.68)"/><path class="cls-1" d="M1783.19,2064.11c17.48-31.79,40.7-49.93,73.22-55.4,57.41-9.67,102.75,10.85,138.25,55.73,18,22.73,30.32,47.12,29.69,77.44-.54,25.56,11.42,40.66,28.05,40,15.72-.62,25.47-15.07,26.55-39.31,3.91-88.27,91.47-153.74,176.8-132.19,26.35,6.66,46.39,23.16,63.16,53.77-8.61,1.3-16.16,2.8-23.78,3.53-51.75,4.94-92.38,28.84-117.28,74.43-38.89,71.21-50.77,147.62-33.38,227.08,4.51,20.55,15,40.58,26.18,58.7,14.22,23,25,25.26,49.38,17.45,3.95,69.16-46.67,92-108,77.33-2.7,23.59,18.17,75,35.64,88.63,12.28,9.55,26,10.41,40.32,7.19,8.72-2,17.18-5,29.06-8.6,3.61,16.66,8,30.81,9,45.21.34,4.68-7.2,12.4-12.74,14.47-9.14,3.43-19.57,3.48-29.47,4.82-44.26,6-55.87,17.6-69.27,59.59-16.4,51.42-35.27,102.05-53.3,152.95-1.9,5.37-5.28,10.22-9.3,17.83-4.1-7-8-11.89-10-17.46-17.83-49.22-37-98-52.4-148-15.06-48.94-23.31-58-75-65.58-41.7-6.16-43.19,1.48-32.45-50,.8-3.8,3.17-7.27,5.61-12.66,8.71,2.38,16.47,4.63,24.29,6.6,26.46,6.69,44.69.48,56.77-23.31,11.11-21.9,19-45.45,29.77-72-37.06,4.79-69.64,10.79-95.78-15.49-16.81-16.9-21.06-38.2-22.27-61.44,28.44,7.46,40,4.91,53.92-20.89,12.46-23.05,23.94-48.35,27.94-73.9,10.26-65.54.13-129.54-27.34-190.14-26-57.28-70.22-89.32-133.74-93.31C1796.51,2066.85,1791.74,2065.58,1783.19,2064.11Z" transform="translate(-425.71 -119.68)"/></svg>